<?xml version="1.0" encoding="utf-8"?>
<!-- Generator: Adobe Illustrator 18.0.0, SVG Export Plug-In . SVG Version: 6.00 Build 0)  -->
<svg version="1.1" id="Capa_1" xmlns="http://www.w3.org/2000/svg" xmlns:xlink="http://www.w3.org/1999/xlink" x="0px" y="0px"
	 viewBox="0 0 1000 1000" enable-background="new 0 0 1000 1000" xml:space="preserve">
<g>
	<g>
		<g>
			<path fill="#FFFFFF" d="M500,0C223.9,0,0,223.9,0,500s223.9,500,500,500s500-223.9,500-500C1000,223.8,776.1,0,500,0z M375,742.2
				H250V304.7h125V742.2z M316.4,277.9c-32.4,0-58.6-26.3-58.6-58.6s26.3-58.6,58.6-58.6c32.4,0.1,58.6,26.3,58.6,58.6
				C375,251.6,348.7,277.9,316.4,277.9z M812.5,742.2h-125V471.7c0-31.7-9.1-53.9-48-53.9c-64.6,0-77,53.9-77,53.9v270.5h-125V304.7
				h125v41.8c17.9-13.7,62.5-41.8,125-41.8c40.5,0,125,24.2,125,170.7L812.5,742.2L812.5,742.2z"/>
		</g>
	</g>
</g>
</svg>
